<?xml version="1.0" encoding="utf-8"?>
<!-- Generator: Adobe Illustrator 23.0.1, SVG Export Plug-In . SVG Version: 6.00 Build 0)  -->
<svg version="1.1" id="レイヤー_1" xmlns="http://www.w3.org/2000/svg" xmlns:xlink="http://www.w3.org/1999/xlink" x="0px"
	 y="0px" viewBox="0 0 186 122" style="enable-background:new 0 0 186 122;" xml:space="preserve">
<style type="text/css">
	.st0{font-family:'FZSXSLKJW--GB1-0';}
	.st1{font-size:30px;}
	.st2{font-size:18px;}
</style>
<g>
	<g>
		<g>
			<path d="M13.9,122c-0.5,0-1-0.4-1-1s0.4-1,1-1l124.4-3.8c0.5,0,1,0.4,1,1s-0.4,1-1,1L13.9,122C14,122,14,122,13.9,122z"/>
		</g>
		<g>
			<path d="M46.7,6.1c-0.5,0-1-0.4-1-1s0.4-1,1-1L171,0.3c0.5,0,1,0.4,1,1s-0.4,1-1,1L46.7,6.1L46.7,6.1z"/>
		</g>
		<g>
			<path d="M164.1,104.9c-0.1,0-0.1,0-0.2,0c-0.5-0.1-0.9-0.7-0.8-1.2L183,15.8c0.1-0.5,0.7-0.9,1.2-0.8c0.5,0.1,0.9,0.7,0.8,1.2
				L165.2,104C165,104.6,164.6,104.9,164.1,104.9z"/>
		</g>
		<g>
			<path d="M2,109c-0.1,0-0.1,0-0.2,0c-0.5-0.1-0.9-0.7-0.8-1.2L20.8,20c0.1-0.5,0.7-0.9,1.2-0.8s0.9,0.7,0.8,1.2L3,108.2
				C2.9,108.7,2.4,109,2,109z"/>
		</g>
	</g>
	<text transform="matrix(0.9847 -0.174 0.174 0.9847 33.9611 72.3093)" class="st0 st1">HTBlog</text>
	<text transform="matrix(0.9991 -4.218915e-02 4.218915e-02 0.9991 69.2177 79.2533)" class="st0 st2">ArtistMan</text>
</g>
</svg>
